<?xml version="1.0" standalone="no"?>
<!DOCTYPE svg PUBLIC "-//W3C//DTD SVG 1.1//EN" "http://www.w3.org/Graphics/SVG/1.1/DTD/svg11.dtd" >
<!--
2013-9-30: Created.
-->
<svg>
<metadata>
Created by iconfont
</metadata>
<defs>

<font id="iconfont" horiz-adv-x="1024" >
  <font-face
    font-family="iconfont"
    font-weight="500"
    font-stretch="normal"
    units-per-em="1024"
    ascent="896"
    descent="-128"
  />
    <missing-glyph />
    
    <glyph glyph-name="zhanqi" unicode="&#58904;" d="M804.864 547.808l-563.2 0c-15.36 0-25.6-15.36-25.6-30.72l0-384c0-15.36 10.24-25.6 25.6-25.6l563.2 0c15.36 0 25.6 10.24 25.6 25.6L830.464 517.088C830.464 532.448 820.224 547.808 804.864 547.808L804.864 547.808 804.864 547.808zM804.864 138.208l-563.2 0 0 378.88 563.2 0L804.864 138.208 804.864 138.208 804.864 138.208zM856.064 655.328l-665.6 0c-40.96 0-76.8-35.84-76.8-81.92l0-547.84c0-46.08 35.84-81.92 76.8-81.92l256 0 0-30.72-158.72-20.48c-10.24-5.12-20.48-15.36-20.48-30.72 0-15.36 10.24-25.6 25.6-25.6l460.8 0c15.36 0 25.6 10.24 25.6 25.6 0 10.24-10.24 25.6-20.48 25.6l-158.72 20.48 0 30.72 256 0c40.96 0 76.8 35.84 76.8 81.92l0 552.96C932.864 619.488 897.024 655.328 856.064 655.328L856.064 655.328 856.064 655.328zM881.664 25.568c0-15.36-10.24-25.6-25.6-25.6l-665.6 0c-15.36 0-25.6 10.24-25.6 25.6L164.864 573.408c0 15.36 10.24 25.6 25.6 25.6l665.6 0c15.36 0 25.6-10.24 25.6-25.6L881.664 25.568 881.664 25.568 881.664 25.568zM441.344 348.128l35.84 0 0-35.84-35.84 0L441.344 348.128 441.344 348.128 441.344 348.128zM497.664 348.128l40.96 0 0-35.84-40.96 0L497.664 348.128 497.664 348.128 497.664 348.128zM553.984 348.128l35.84 0 0-35.84-35.84 0L553.984 348.128 553.984 348.128 553.984 348.128zM441.344 291.808l35.84 0 0-35.84-35.84 0L441.344 291.808 441.344 291.808 441.344 291.808zM497.664 291.808l40.96 0 0-35.84-40.96 0L497.664 291.808 497.664 291.808 497.664 291.808zM553.984 291.808l35.84 0 0-35.84-35.84 0L553.984 291.808 553.984 291.808 553.984 291.808zM420.864 481.248l40.96 0 0-40.96-40.96 0L420.864 481.248 420.864 481.248 420.864 481.248zM574.464 481.248l35.84 0 0-40.96-35.84 0L574.464 481.248 574.464 481.248 574.464 481.248zM441.344 348.128l35.84 0 0-35.84-35.84 0L441.344 348.128 441.344 348.128 441.344 348.128zM497.664 348.128l40.96 0 0-35.84-40.96 0L497.664 348.128 497.664 348.128 497.664 348.128zM553.984 348.128l35.84 0 0-35.84-35.84 0L553.984 348.128 553.984 348.128 553.984 348.128zM441.344 291.808l35.84 0 0-35.84-35.84 0L441.344 291.808 441.344 291.808 441.344 291.808zM497.664 291.808l40.96 0 0-35.84-40.96 0L497.664 291.808 497.664 291.808 497.664 291.808zM553.984 291.808l35.84 0 0-35.84-35.84 0L553.984 291.808 553.984 291.808 553.984 291.808zM420.864 481.248l40.96 0 0-40.96-40.96 0L420.864 481.248 420.864 481.248 420.864 481.248zM574.464 481.248l35.84 0 0-40.96-35.84 0L574.464 481.248 574.464 481.248 574.464 481.248zM630.784 481.248l-15.36 0c10.24 0 20.48-10.24 20.48-20.48l0-20.48c0-10.24-10.24-20.48-20.48-20.48l-40.96 0c-10.24 0-20.48 10.24-20.48 20.48l0 20.48c0 10.24 10.24 20.48 20.48 20.48l-112.64 0c10.24 0 20.48-10.24 20.48-20.48l0-20.48c0-10.24-10.24-20.48-20.48-20.48l-40.96 0c-10.24 0-20.48 10.24-20.48 20.48l0 20.48c0 10.24 10.24 20.48 20.48 20.48l-20.48 0c-20.48 0-35.84-15.36-35.84-40.96l0-230.4c0-20.48 15.36-35.84 35.84-35.84l230.4 0c20.48 0 35.84 15.36 35.84 35.84l0 235.52C671.744 465.888 651.264 481.248 630.784 481.248L630.784 481.248 630.784 481.248zM630.784 230.368c0-10.24-10.24-20.48-20.48-20.48L420.864 209.888c-10.24 0-20.48 10.24-20.48 20.48L400.384 368.608c0 10.24 10.24 20.48 20.48 20.48l189.44 0c10.24 0 20.48-10.24 20.48-20.48L630.784 230.368 630.784 230.368 630.784 230.368zM630.784 230.368"  horiz-adv-x="1024" />

    
    <glyph glyph-name="jilu" unicode="&#58987;" d="M924.416 749.344 163.744 749.344c-19.104 0-34.592-14.336-34.592-32l0-834.656c0-17.696 15.488-32 34.592-32l760.672 0c19.136 0 34.592 14.304 34.592 32L959.008 717.344C959.008 735.008 943.52 749.344 924.416 749.344zM894.688-53.312c0-17.696-14.304-32-32-32L225.344-85.312c-17.664 0-32 14.304-32 32l0 704c0 17.664 14.336 32 32 32l637.344 0c17.696 0 32-14.336 32-32L894.688-53.312zM129.152 619.36c-35.328 0-64-28.672-64-64s28.672-64 64-64 64 28.672 64 64S164.48 619.36 129.152 619.36zM129.152 539.36c-8.832 0-16 7.168-16 16s7.168 16 16 16 16-7.168 16-16S137.984 539.36 129.152 539.36zM129.152 364c-35.328 0-64-28.672-64-64 0-35.328 28.672-64 64-64s64 28.672 64 64C193.152 335.36 164.48 364 129.152 364zM129.152 284c-8.832 0-16 7.168-16 16s7.168 16 16 16 16-7.168 16-16S137.984 284 129.152 284zM129.152 108.672c-35.328 0-64-28.64-64-64 0-35.328 28.672-64 64-64s64 28.672 64 64C193.152 80.064 164.48 108.672 129.152 108.672zM129.152 28.672c-8.832 0-16 7.2-16 16 0 8.864 7.168 16 16 16s16-7.136 16-16C145.152 35.872 137.984 28.672 129.152 28.672zM766.88 523.36c0-17.664-14.304-32-32-32L351.232 491.36c-17.664 0-32 14.336-32 32l0 0c0 17.664 14.336 32 32 32l383.648 0C752.576 555.36 766.88 541.024 766.88 523.36L766.88 523.36zM766.88 300c0-17.664-14.304-32-32-32L351.232 268c-17.664 0-32 14.336-32 32l0 0c0 17.664 14.336 32 32 32l383.648 0C752.576 332 766.88 317.696 766.88 300L766.88 300zM766.88 76.672c0-17.664-14.304-32-32-32L351.232 44.672c-17.664 0-32 14.336-32 32l0 0c0 17.696 14.336 32 32 32l383.648 0C752.576 108.672 766.88 94.368 766.88 76.672L766.88 76.672z"  horiz-adv-x="1024" />

    
    <glyph glyph-name="xianxia" unicode="&#58886;" d="M951.322747 555.226756c-0.600681 2.981914-1.081635 4.668323-1.768273 6.288217l-67.059302 145.80783c-12.193717 36.429701-47.206138 58.763358-88.167039 58.857503l-494.087025-0.001023c-41.502229 0-73.750701-22.128997-85.435835-57.109696L135.796826 559.682231c-0.358157-1.056052-0.75213-2.617617-1.081635-4.217045-5.496178-16.918321-8.256034-34.287921-8.256034-51.720965 0.059352-61.293995 33.602306-121.466446 87.507006-150.278655 22.282492-11.952216 48.377824-17.971303 77.777411-17.971303 49.27731 0.148379 94.925976 21.85475 126.034485 59.006905 30.961152-36.851303 76.247568-58.405201 125.437897-58.709123 48.796356 0.390903 93.963045 22.036899 124.774795 58.857503 31.113625-37.151132 76.815503-58.764382 126.33636-58.764382 29.971615 0.147356 56.576553 6.472412 78.979796 18.784832 53.093219 29.083385 86.035492 89.044012 86.007863 149.708674C959.40175 521.806599 956.550819 539.300019 951.322747 555.226756zM671.454642 335.495286c-30.81175-36.820604-77.277014-62.510706-126.07337-62.901609-49.190329 0.303922-93.178169 25.901926-124.140345 62.754253-31.108508-37.154201-74.046437-62.420655-123.323746-62.754253-52.78725-0.358157-98.217952 33.135678-104.641245 37.882795l0-184.287213c0-50.872644 41.235147-92.097558 92.100628-92.097558l517.067412 0c50.952462 0 92.101651 41.234123 92.101651 92.097558L894.545626 302.674786c-2.323928-1.427512-41.444924-32.091906-100.099812-29.989011C744.957703 274.460188 702.568267 298.344155 671.454642 335.495286zM750.178611 114.945171 658.06161 114.945171l0 92.117001 92.117001 0L750.178611 114.945171z"  horiz-adv-x="1024" />

    
    <glyph glyph-name="qiandai" unicode="&#58918;" d="M382.624676 563.495446l279.628612 0c18.858214 0 37.014904 7.981788 49.119297 22.454576 28.857435 34.295747 56.22408 76.398002 62.363917 114.11443 12.367415 75.520797-19.998641 113.851409-113.851409 113.851409s-62.100696-61.574453-98.589356-66.661803c-27.190965-3.771643-26.226219 32.102834-68.942257 66.574063-30.699586 24.647289-65.082874-44.996692-105.606399-45.435195-47.277146-0.613984-113.763668 12.455155-113.763668-68.328273 0-32.629277 28.594413-76.748764 59.820242-113.324966C345.346751 572.091418 363.4155 563.495446 382.624676 563.495446zM731.458767 491.571011c-14.91109 16.928522-36.576201 26.4017-59.118518 26.4017L373.941164 517.972711c-21.577371 0-42.365276-8.683513-57.276566-24.296527C222.89937 395.437589 136.414607 255.184681 136.414607 152.911422c0-90.168866 90.607368-204.020274 202.353604-204.020274l346.465896 0c111.746236 0 202.353604 112.886463 202.353604 204.020274C887.587911 257.026632 818.031471 393.332417 731.458767 491.571011zM640.325156 367.45716l-59.995523-108.851798c-5.262832-9.560718 1.66647-21.314149 12.542896-21.314149l17.016263 0c7.894248 0 14.384847-6.403059 14.384847-14.384847l0 0c0-7.894248-6.403059-14.384847-14.384847-14.384847l-42.803979 0c-8.33275 0-14.998831-6.66628-15.086571-14.998831l0-7.104783c0-7.894248 6.403059-14.384847 14.384847-14.384847l43.505503 0c7.894248 0 14.384847-6.403059 14.384847-14.384847s-6.403059-14.384847-14.384847-14.384847l-43.505503 0c-7.894248 0-14.384847-6.403059-14.384847-14.384847l0-36.576201c0-7.894248-6.403059-14.384847-14.384847-14.384847l-26.050738 0c-7.894248 0-14.384847 6.403059-14.384847 14.384847l0 36.576201c0 7.894248-6.403059 14.384847-14.384847 14.384847l-43.067001 0c-7.894248 0-14.384847 6.403059-14.384847 14.384847s6.403059 14.384847 14.384847 14.384847l42.97926 0c7.981988 0 14.385047 6.403059 14.472588 14.384847l0.087741 7.017042c0.087741 8.33275-6.66628 15.174312-15.086571 15.174312l-42.453017 0c-7.894248 0-14.384847 6.403059-14.384847 14.384847l0 0c0 7.894248 6.403059 14.384847 14.384847 14.384847l16.57776 0c10.964166 0 17.805728 11.753431 12.542896 21.314149l-59.995723 108.851599c-5.262832 9.560718 1.66647 21.314349 12.542896 21.314349l28.594413 0c5.438113 0 10.437923-3.069919 12.806117-7.894248l48.856076-97.44893c5.262832-10.525464 20.349403-10.525464 25.699975 0l48.856076 97.44893c2.455935 4.824129 7.367805 7.894248 12.806117 7.894248l28.594413 0C638.658486 388.683768 645.587987 377.017878 640.325156 367.45716z"  horiz-adv-x="1024" />

    
    <glyph glyph-name="yijianfankui" unicode="&#58996;" d="M878.42446 723.732541 150.232606 723.732541c-87.262436 0-82.507132-81.896218-82.507132-81.896218l0-581.588915c0-83.549881 82.507132-81.899288 82.507132-81.899288l728.191854 0c1.842974 0 3.629667 0.055259 5.390777 0.135076l14.703887 0 0 1.701758c62.424748 12.084223 62.408375 80.063477 62.408375 80.063477L960.927499 641.836323C960.928522 641.836323 958.582081 723.732541 878.42446 723.732541zM903.631562 35.78118 125.019365 35.78118 125.019365 666.037515 903.631562 666.037515 903.631562 35.78118zM184.715979 526.549623l305.753659-221.548862c10.786671-7.470135 35.68678-8.15268 47.712675 0l306.776965 221.548862c13.284561 7.912204 17.836227 25.431206 10.16757 39.136346-7.671727 13.70207-24.663726 18.394952-37.947264 10.484795L514.837628 357.824851 212.495672 576.171788c-13.284561 7.910157-30.275537 3.217275-37.947264-10.484795C166.879752 551.980829 171.431417 534.46285 184.715979 526.549623z"  horiz-adv-x="1024" />

    
    <glyph glyph-name="seeuser" unicode="&#59423;" d="M345.763396 694.345234c23.812335 29.027104 53.188386 47.91222 80.491219 60.169381 13.139252 5.898337 26.89658 10.092869 40.590464 12.890588 15.122419 3.089361 30.256094 4.466732 44.416606 4.552689l0.080841 0 0.656963 0.001023 0.656963-0.001023 0.080841 0c14.160511-0.085958 29.293163-1.463328 44.416606-4.552689 13.693884-2.797719 27.451212-6.992251 40.590464-12.890588 27.303856-12.257162 56.679907-31.142278 80.490196-60.169381 18.919908-23.064298 34.198893-52.305273 41.965787-89.354074 5.513574-26.299993 7.27366-55.94415 4.76349-84.952834-2.38021-27.533077-8.609075-54.831816-19.123546-78.636988-5.731538-12.974499-13.662161-28.107151-24.632004-45.046962-8.782014-13.558807-19.430538-28.127617-32.337499-43.444465-2.281973-4.033873-10.17985-20.394493 5.689582-29.870308 18.24248-10.894118 62.590524-37.638225 103.817484-62.847373 27.00812-16.514115 53.829999-33.085536 73.069179-45.339628 14.011108-8.9263 30.843472-20.164249 44.925189-34.5724 15.693424-16.056698 27.712155-35.671431 29.182646-59.82555 0.432859-7.096628 0.63138-15.47239 0.665149-24.228821 0.035816-9.708106-0.157589-19.244296-0.477884-27.582195-0.740874-19.304671-4.740978-36.20662-14.56881-49.251727-10.765181-14.289448-27.005051-22.819728-51.15303-23.352871l-0.405229 0c-94.846158 0.343831-203.744357 0.515746-327.616596 0.515746s-232.770438-0.171915-327.616596-0.515746l-0.404206 0c-24.14798 0.533143-40.387849 9.063423-51.152007 23.352871-9.827833 13.045107-13.82896 29.947056-14.56881 49.251727-0.320295 8.337899-0.5137 17.875113-0.477884 27.583219 0.031722 8.755408 0.233314 17.130146 0.664126 24.227798 1.471514 24.15412 13.490246 43.767829 29.183669 59.82555 14.08274 14.408151 30.913057 25.647123 44.925189 34.5724 19.237133 12.253068 46.056965 28.822442 73.062016 45.336558 41.229007 25.209148 85.580121 51.955302 103.823624 62.850443 15.869433 9.476839 7.971555 25.836435 5.689582 29.870308-12.904914 15.316847-23.554462 29.885658-32.336476 43.444465-10.970866 16.939811-18.902512 32.072463-24.632004 45.046962-10.514471 23.805172-16.743336 51.103912-19.12457 78.636988-2.51017 29.008684-0.748037 58.652841 4.76349 84.952834C311.565527 642.039961 326.843488 671.281959 345.763396 694.345234"  horiz-adv-x="1024" />

    
    <glyph glyph-name="fenpei" unicode="&#59333;" d="M865.30048 283.71968c-35.3792 0-69.56032-12.40576-97.12128-35.10784l-183.24992 135.3984 182.912 135.36768a152.79104 152.79104 0 0 1 97.4592-35.0976c84.73088 0 153.66144 68.93056 153.66144 153.66144S950.03136 791.6032 865.30048 791.6032c-84.72064 0-153.6512-68.93056-153.6512-153.66144 0-15.4112 2.59072-31.0784 7.7312-46.68416L497.28 427.24864H312.35584v22.99392c0 48.19968-39.21408 87.41376-87.41376 87.41376H92.45184C44.25216 537.65632 5.03808 498.44224 5.03808 450.24256v-132.49024c0-48.19456 39.21408-87.41376 87.41376-87.41376h132.49024c48.19968 0 87.41376 39.2192 87.41376 87.41376v22.99392h185.61024l221.40416-163.65056c-5.13024-15.54432-7.72096-31.3344-7.72096-47.03744 0-84.736 68.93056-153.66656 153.6512-153.66656 84.73088 0 153.66144 68.93056 153.66144 153.66656 0 84.73088-68.93056 153.66144-153.66144 153.66144z m0-220.81536c-37.65248 0-67.1488 29.50144-67.1488 67.15904 0 37.65248 29.50144 67.15392 67.1488 67.15392 37.6576 0 67.15904-29.50144 67.15904-67.15392 0-37.6576-29.50144-67.15904-67.15904-67.15904z m0 507.87328c-37.65248 0-67.1488 29.50144-67.1488 67.15904s29.50144 67.15392 67.1488 67.15392c37.6576 0 67.15904-29.49632 67.15904-67.15392s-29.50144-67.15904-67.15904-67.15904zM91.54048 450.24256c0 0.47104 0.06656 0.768 0 0.80384a3.328 3.328 0 0 0 0.91136 0.10752h132.49024c0.47104 0.00512 0.768-0.06144 0.80384 0a3.0976 3.0976 0 0 0 0.10752-0.91136v-132.49024c0-0.47104-0.06144-0.768 0-0.79872a3.0976 3.0976 0 0 0-0.91136-0.10752H92.45184c-0.31232 0-0.54784 0.03072-0.68608 0.03072-0.06144 0-0.10752-0.01024-0.11264-0.03072a3.0976 3.0976 0 0 0-0.10752 0.91136V450.24256z"  horiz-adv-x="1024" />

    
    <glyph glyph-name="heimingdan" unicode="&#58887;" d="M796.83 381.964q45.805 0 86.52-17.304t71.253-47.84 48.35-71.253 17.813-86.521-17.813-86.521-48.35-71.253-71.253-48.35-86.52-17.813q-46.824 0-87.54 17.813t-71.252 48.35-47.84 71.253-17.305 86.52 17.304 86.522 47.841 71.252 71.253 47.841 87.538 17.304z m110.95-257.527q15.268 0 25.956 9.161t10.688 24.43-10.688 25.956-25.956 10.688H687.915q-15.269 0-25.956-10.688t-10.688-25.956 10.688-24.43 25.956-9.16H907.78z m-407.157-58.02q4.071-20.357 13.232-42.751t26.974-45.296 44.788-45.296 68.707-41.734q-27.483-6.107-64.127-10.179-31.555-4.072-76.342-6.616T411.048-128q-29.519 0-68.199 2.036t-80.413 5.598-82.45 8.652-74.306 10.18-57.002 10.178-29.519 10.18Q8.98-73.035 3.382-31.3t4.58 107.896q6.108 37.662 30.537 57.511t57.511 31.555 68.2 20.867 62.6 26.465q21.375 13.233 33.081 25.956t16.286 24.939 4.58 25.447-1.017 29.519q-2.036 23.411-16.286 37.153T232.917 384q-8.143 7.125-14.76 19.849t-11.705 25.956q-5.09 15.269-10.18 32.573-7.125 2.036-14.25 7.125-6.107 5.09-12.723 14.25t-11.706 26.466q-6.108 17.304-4.58 31.554t5.598 25.448 13.232 21.375q0 38.68 4.072 77.36 4.071 32.573 14.25 70.235t31.555 67.18q19.34 28.502 43.26 46.824t48.35 28.5 49.368 13.742T411.048 896q29.519 0 57.002-7.125t50.895-18.322 41.733-25.448 29.52-28.5q26.464-32.573 38.68-71.762t17.303-74.815q5.09-40.716 5.09-82.45 7.125-5.089 11.197-13.232 4.071-7.125 6.616-18.322t0.509-28.501q-2.036-21.376-8.652-34.1t-14.76-19.848q-9.16-8.144-19.34-11.197-5.09-17.304-10.179-32.573-5.09-13.232-11.705-25.956T590.197 384q-9.16-8.143-14.25-16.286t-8.143-16.287-6.617-17.813-10.688-19.849q-47.84-73.288-55.475-132.326t5.599-115.022z"  horiz-adv-x="1024" />

    
    <glyph glyph-name="jiekuan" unicode="&#58882;" d="M637.27 610.372a20.821 20.821 0 0 1-28.092 0l-105.37-99.055-105.404 99.055a20.821 20.821 0 0 1-28.091 0 14.2 14.2 0 0 1 0-23.04l105.403-95.675H384.24c-10.991 0-19.9-8.397-19.9-18.74 0-10.342 8.875-18.705 19.9-18.705h98.236v-56.183h-98.236c-10.991 0-19.9-8.397-19.9-18.74 0-10.342 8.875-18.704 19.9-18.704h99.67V304.4c0-10.342 8.874-18.74 19.899-18.74s19.934 8.398 19.934 18.74v56.184h99.635c10.991 0 19.934 8.362 19.934 18.705 0 10.342-8.943 18.739-19.934 18.739H522.342v56.183h101.41c11.026 0 19.934 8.363 19.934 18.705 0 10.343-8.908 18.74-19.933 18.74h-91.82l105.37 95.675a14.2 14.2 0 0 1 0 23.04M874.394 207.428C827.426 128 725.982 44.34 701.474 25.156c-28.399-22.05-56.832-30.515-125.713-30.515H102.025c-12.835 0-28.4 4.028-28.4 11.913V117.419c53.59 33.45 109.364 63.488 166.98 89.975 10.24 4.984 20.925 9.011 26.25 11.708a352.46 352.46 0 0 0 110.148 36.25c39.458 0 39.458-6.315 39.458-19.183 0-12.835-23.689-35.5-32.563-43.145-22.7-19.217-31.779-42.223-23.689-63.317 6.28-14.166 21.402-22.597 37.103-20.753h102.639c46.421 0 82.705-3.619 145.271 38.4a1001.267 1001.267 0 0 1 114.893 95.914c24.064 22.46 46.968 43.008 63.761 55.638 51.303 38.4 66.697 25.327 73.216 19.217 6.52-6.144 28.433-24.372-22.698-110.729z m49.937 138.923c-46.592 40.687-104.994-3.857-124.143-19.183-19.15-15.36-41.848-35.874-66.73-59.119a999.697 999.697 0 0 0-109.91-93.628 178.074 178.074 0 0 0-122.812-34.133H398.097a27.238 27.238 0 0 0 13.039 24.747c22.699 19.183 45.978 43.759 45.978 71.953 0 40.277-23.655 57.549-78.95 57.549-34.134 0-96.325-24.918-127.489-40.483l-13.039-6.314c-103.048 149.709-61.713 352.29 92.33 452.471 154.045 100.147 362.429 59.972 465.477-89.77a319.761 319.761 0 0 0 56.662-182.34c0-10.616 8.84-19.218 19.729-19.218a19.456 19.456 0 0 1 19.729 19.217c0 201.319-167.902 364.544-375.023 364.544-207.121 0-375.023-163.225-375.023-364.544a350.345 350.345 0 0 1 56.252-198.417C61.167 162.918 34.133 142.2 34.133 121.105v-115.132c0-27.648 31.403-50.483 67.926-50.483H575.76c79.94 0 116.838 12.664 150.596 38.4 33.758 25.703 133.052 112.23 182.375 195.516 33.177 56.798 60.416 117.623 15.599 156.945z"  horiz-adv-x="1024" />

    
    <glyph glyph-name="cuishouguanli" unicode="&#58883;" d="M688.381247 466.167742c-162.551742 0-294.32843-131.776688-294.32843-294.333936 0-162.551742 131.776688-294.32843 294.32843-294.32843S982.709677 9.282065 982.709677 171.833806c0 162.557247-131.776688 294.333935-294.32843 294.333936z m130.510452-405.509505c-6.408258-11.258495-19.274323-16.031656-28.716043-10.663914l-133.362237 75.676903c-8.318624 4.718108-11.241978 15.695828-7.503828 25.924817v181.732473a23.441892 23.441892 0 1 0 46.883785 0v-176.083957l117.121377-66.466408c9.469247-5.378753 11.985204-18.866925 5.576946-30.119914zM326.325677 174.443355c0 204.271484 165.59071 369.867699 369.867699 369.867699 57.911054 0 112.695054-13.328516 161.49471-37.051183V768.313806c0 43.156645-34.986667 78.137806-78.143312 78.137807H128.36886C85.21772 846.451613 50.231054 811.470452 50.231054 768.313806v-708.475871c0-43.156645 34.981161-78.137806 78.137806-78.137806h252.11871c-34.342538 56.127312-54.161892 122.109247-54.161893 192.743226z m-138.047311 552.189247h489.681204a28.649978 28.649978 0 0 0 0-57.299957H188.278366a28.649978 28.649978 0 0 0 0 57.299957z m0-135.443269h328.192a28.655484 28.655484 0 0 0 0-57.305462H188.278366a28.655484 28.655484 0 0 0 0 57.305462z m-28.649979-174.509419a28.655484 28.655484 0 0 0 28.649979 28.649978h166.702795a28.649978 28.649978 0 0 0 0-57.299957h-166.702795a28.649978 28.649978 0 0 0-28.649979 28.649979z"  horiz-adv-x="1024" />

    
    <glyph glyph-name="fangkuanshijian" unicode="&#58954;" d="M530.265946 113.608649a42.620541 42.620541 0 1 1-42.620541 42.62054 42.620541 42.620541 0 0 1 42.620541-42.62054z m-176.294054 0a42.620541 42.620541 0 1 1-42.620541 42.62054 41.79027 41.79027 0 0 1 42.620541-42.62054zM706.006486 287.135135A42.620541 42.620541 0 1 1 664.216216 330.585946 42.620541 42.620541 0 0 1 706.006486 287.135135z m-176.017297 0a42.620541 42.620541 0 1 1-42.62054 42.620541A42.620541 42.620541 0 0 1 530.265946 287.135135z m-175.463784 0a42.620541 42.620541 0 1 1-42.62054 42.620541A42.620541 42.620541 0 0 1 354.802162 287.135135zM798.166486 659.372973h-55.351351v-36.808649h55.351351a39.299459 39.299459 0 0 0 38.745946-38.745946v-115.13081H221.405405v115.13081a39.299459 39.299459 0 0 0 38.745946 38.745946h56.735135V659.372973h-55.351351a78.322162 78.322162 0 0 1-78.598919-78.045405v-484.324325a77.768649 77.768649 0 0 1 77.215135-78.045405h538.015135a78.322162 78.322162 0 0 1 78.598919 78.045405V580.774054a78.322162 78.322162 0 0 1-78.598919 78.598919zM839.403243 93.405405a39.299459 39.299459 0 0 0-38.745946-38.745946H260.704865A39.299459 39.299459 0 0 0 221.405405 93.405405V431.602162h617.997838V93.405405zM673.625946 543.135135a27.675676 27.675676 0 0 1 27.675676 26.291892V712.233514a27.675676 27.675676 0 0 1-27.675676 26.291891 27.675676 27.675676 0 0 1-27.675676-26.291891v-143.083244a27.675676 27.675676 0 0 1 27.675676-26.015135z m-286.166487 0a27.675676 27.675676 0 0 1 27.675676 26.291892V712.233514a27.675676 27.675676 0 0 1-27.675676 26.291891 27.675676 27.675676 0 0 1-27.675675-26.291891v-143.083244a26.015135 26.015135 0 0 1 27.675675-26.015135z m69.18919 116.237838h149.725405V622.010811h-150.278919z"  horiz-adv-x="1024" />

    
    <glyph glyph-name="yingbi" unicode="&#58930;" d="M422.4 349.866667H234.666667c-16.64 0-29.866667 13.226667-29.866667 29.866666s13.226667 29.866667 29.866667 29.866667h247.466666v34.133333H234.666667c-35.413333 0-64-28.586667-64-64s28.586667-64 64-64h187.733333v34.133334zM482.133333 443.733333H234.666667c-16.64 0-29.866667 13.226667-29.866667 29.866667s13.226667 29.866667 29.866667 29.866667h341.333333c11.093333 0 21.333333-5.973333 26.453333-15.786667l30.293334 16.213333c-11.093333 20.48-32.426667 33.706667-56.32 33.706667H234.666667c-35.413333 0-64-28.586667-64-64s28.586667-64 64-64h247.466666v34.133333zM234.666667 631.466667h341.333333c35.413333 0 64-28.586667 64-64s-28.586667-64-64-64H234.666667c-35.413333 0-64 28.586667-64 64s28.586667 64 64 64z m0-34.133334c-16.64 0-29.866667-13.226667-29.866667-29.866666s13.226667-29.866667 29.866667-29.866667h341.333333c16.64 0 29.866667 13.226667 29.866667 29.866667s-13.226667 29.866667-29.866667 29.866666H234.666667zM234.666667 725.333333h341.333333c35.413333 0 64-28.586667 64-64s-28.586667-64-64-64H234.666667c-35.413333 0-64 28.586667-64 64s28.586667 64 64 64z m0-34.133333c-16.64 0-29.866667-13.226667-29.866667-29.866667s13.226667-29.866667 29.866667-29.866666h341.333333c16.64 0 29.866667 13.226667 29.866667 29.866666s-13.226667 29.866667-29.866667 29.866667H234.666667zM661.333333-42.666667c-153.173333 0-277.333333 124.16-277.333333 277.333334s124.16 277.333333 277.333333 277.333333 277.333333-124.16 277.333334-277.333333-124.16-277.333333-277.333334-277.333334z m0 27.733334c137.813333 0 249.6 111.786667 249.6 249.6S799.146667 484.266667 661.333333 484.266667 411.733333 372.48 411.733333 234.666667s111.786667-249.6 249.6-249.6zM661.333333 22.186667c-117.333333 0-212.48 95.146667-212.48 212.48s95.146667 212.48 212.48 212.48c117.333333 0 212.48-95.146667 212.48-212.48s-95.146667-212.48-212.48-212.48z m0 27.733333c101.973333 0 184.746667 82.773333 184.746667 184.746667s-82.773333 184.746667-184.746667 184.746666-184.746667-82.773333-184.746666-184.746666 82.773333-184.746667 184.746666-184.746667zM695.04 288h49.92c7.68 0 14.08-6.4 14.08-14.08s-6.4-14.08-14.08-14.08h-69.546667v-27.733333h69.546667c7.68 0 14.08-6.4 14.08-14.08s-6.4-14.08-14.08-14.08h-69.546667v-58.453334c0-7.68-6.4-14.08-14.08-14.08s-14.08 6.4-14.08 14.08v58.453334h-69.546666c-7.68 0-14.08 6.4-14.08 14.08s6.4 14.08 14.08 14.08h69.546666V260.266667h-69.546666c-7.68 0-14.08 6.4-14.08 14.08s6.4 14.08 14.08 14.08h49.066666l-25.173333 25.173333c-5.546667 5.546667-5.546667 14.08 0 19.626667 5.546667 5.546667 14.08 5.546667 19.626667 0l39.68-39.68 39.68 39.68c5.546667 5.546667 14.08 5.546667 19.626666 0 5.546667-5.546667 5.546667-14.08 0-19.626667l-25.173333-25.6z"  horiz-adv-x="1024" />

    
    <glyph glyph-name="tongji" unicode="&#59242;" d="M932 48H792V496c0 30.9-25.1 56-56 56H624V664c0 30.9-25.1 56-56 56H456c-30.9 0-56-25.1-56-56v-336H288c-30.9 0-56-25.1-56-56v-224H120V748c0 15.5-12.5 28-28 28s-28-12.5-28-28v-700c0-30.9 25.1-56 56-56h812c15.5 0 28 12.5 28 28s-12.5 28-28 28z m-644 0V272h112v-224H288z m168 0V664h112v-616H456z m168 0V496h112v-448H624z"  horiz-adv-x="1024" />

    
    <glyph glyph-name="stat_icon" unicode="&#58645;" d="M66.11456 338.25792a64.50176 64.50176 0 0 0-48.68608 22.1696A64.2048 64.2048 0 0 0 1.67424 406.3744a64.256 64.256 0 0 0 20.3264 43.51488L322.7648 747.50976a80.70656 80.70656 0 0 0 57.11872 23.4752c18.19136 0 36.0704-6.21568 50.34496-17.50528l219.04896-173.2352 180.93056 207.2576L727.69024 895.96416 1022.42816 896l-0.1024-297.23136-98.5856 98.67776-218.1632-241.792a78.60736 78.60736 0 0 0-58.27072-25.90208c-18.0736 0-35.73248 6.31808-49.72032 17.78688L377.53344 627.95776 110.53568 355.9936l-0.38912-0.35328a64.25088 64.25088 0 0 0-44.032-17.3824zM24.80128 272.24576h122.27072V-128H24.80128v400.24576zM301.01504 469.72416h122.2656v-597.71904h-122.2656V469.72416zM600.51456 335.88224h122.27072v-463.87712h-122.27072v463.87712zM900.01408 542.1312h122.27072V-128h-122.27072V542.1312z"  horiz-adv-x="1024" />

    
    <glyph glyph-name="jixiaokaohe" unicode="&#59177;" d="M896 23.9c0-13.2-10.7-23.9-23.9-23.9H151.9c-13.2 0-23.9 10.7-23.9 23.9V744.1c0 13.2 10.7 23.9 23.9 23.9H768V832H151.9C103.3 832 64 792.7 64 744.1v-720.2c0-48.5 39.3-87.9 87.9-87.9h720.2c48.6 0 87.9 39.4 87.9 87.9V640h-64v-616.1zM614.3 616.8c0-17.7 14.3-32 32-32H714L525.8 396.6 389.7 532.7 210.1 353.1c-12.5-12.5-12.5-32.8 0-45.3 6.2-6.2 14.4-9.4 22.6-9.4s16.4 3.1 22.6 9.4l134.4 134.4 136.1-136.1 233.5 233.5v-67.7c0-17.7 14.3-32 32-32s32 14.3 32 32v145 1.6c0 0.3 0 0.5-0.1 0.8 0 0.3 0 0.5-0.1 0.8 0 0.3-0.1 0.6-0.1 0.9 0 0.2 0 0.4-0.1 0.6-0.1 0.3-0.1 0.7-0.2 1 0 0.2-0.1 0.3-0.1 0.5-0.1 0.3-0.1 0.7-0.2 1 0 0.2-0.1 0.3-0.1 0.5-0.1 0.3-0.2 0.7-0.3 1 0 0.2-0.1 0.4-0.1 0.5l-0.3 0.9c-0.1 0.2-0.1 0.4-0.2 0.6-0.1 0.3-0.2 0.5-0.3 0.8-0.1 0.2-0.2 0.4-0.3 0.7-0.1 0.2-0.2 0.5-0.3 0.7-0.1 0.2-0.2 0.5-0.3 0.7l-0.3 0.6c-0.1 0.3-0.3 0.5-0.4 0.8-0.1 0.2-0.2 0.4-0.3 0.5-0.2 0.3-0.3 0.6-0.5 0.8-0.1 0.2-0.2 0.3-0.3 0.5-0.2 0.3-0.3 0.6-0.5 0.8-0.1 0.2-0.2 0.3-0.3 0.5-0.2 0.3-0.4 0.5-0.5 0.8-0.1 0.2-0.3 0.4-0.4 0.6-0.2 0.2-0.3 0.4-0.5 0.7-0.2 0.3-0.4 0.5-0.6 0.8-0.1 0.1-0.2 0.3-0.4 0.4-0.7 0.8-1.5 1.5-2.3 2.3-0.1 0.1-0.3 0.2-0.4 0.4-0.3 0.2-0.5 0.4-0.8 0.7-0.2 0.2-0.4 0.3-0.7 0.5-0.2 0.1-0.4 0.3-0.6 0.4-0.3 0.2-0.5 0.4-0.8 0.6-0.2 0.1-0.3 0.2-0.5 0.3-0.3 0.2-0.6 0.4-0.8 0.5-0.2 0.1-0.3 0.2-0.5 0.3-0.3 0.2-0.6 0.3-0.8 0.5-0.2 0.1-0.3 0.2-0.5 0.3-0.3 0.1-0.5 0.3-0.8 0.4l-0.6 0.3c-0.2 0.1-0.5 0.2-0.8 0.3-0.2 0.1-0.5 0.2-0.7 0.3-0.2 0.1-0.5 0.2-0.7 0.3-0.3 0.1-0.5 0.2-0.8 0.3-0.2 0.1-0.4 0.1-0.6 0.2l-0.9 0.3c-0.2 0.1-0.4 0.1-0.5 0.2-0.3 0.1-0.7 0.2-1 0.3-0.2 0-0.3 0.1-0.5 0.1-0.3 0.1-0.7 0.2-1 0.2-0.2 0-0.3 0.1-0.5 0.1-0.3 0.1-0.7 0.1-1 0.2-0.2 0-0.4 0.1-0.6 0.1-0.3 0-0.6 0.1-0.9 0.1-0.3 0-0.5 0-0.8 0.1-0.3 0-0.5 0-0.8 0.1H646.4c-17.8-0.2-32.1-14.5-32.1-32.2zM791.3 192H232.7c-17.7 0-32-14.3-32-32s14.3-32 32-32h558.6c17.7 0 32 14.3 32 32s-14.3 32-32 32zM928 800m-32 0a32 32 0 1 1 64 0 32 32 0 1 1-64 0Z"  horiz-adv-x="1024" />

    
    <glyph glyph-name="huankuan1" unicode="&#58628;" d="M542.2 362.66666667000004H225.9c-17.6 0-31.8 14.3-31.8 31.8v0.3c0 17.6 14.3 31.8 31.8 31.8h316.3c17.6 0 31.8-14.3 31.8-31.8v-0.3c0-17.5-14.2-31.8-31.8-31.8zM369.4 235.06666667000002h-126c-17.7 0-32 14.3-32 32s14.3 32 32 32h126c17.7 0 32-14.3 32-32s-14.3-32-32-32zM931.8 279.76666666999995c16.9 1.7 29.6 15.8 29.6 32.8s-12.7 31.1-29.6 32.8H687.5c-7.9 1.2-16-1-22.3-5.9-6.5-5-10.5-12.6-11.2-20.8V82.46666667c0-18.2 14.8-32.9 32.9-32.9 18.2 0 32.9 14.8 32.9 32.9V261.96666667c98.5-57.9 146.5-133.6 146.5-231.4v-0.5c1.4-18.3 16.6-32.4 34.8-32.4h0.5c17.4 0 31.8 13.6 32.9 30.9v0.4c0 57.2-11.3 108.8-33.7 153.5-19.9 39.8-47.8 72.4-83 97.1h113.3l0.7 0.2zM897 710.06666667H129c-35.3 0-64-28.7-64-64v-584c0-35.3 28.7-64 64-64h447c17.7 0 32 14.3 32 32s-14.3 32-32 32H193c-35.3 0-64 28.7-64 64V494.76666667h768V426.66666667c0-17.7 14.3-32 32-32s32 14.3 32 32V646.06666667c0 35.3-28.7 64-64 64zM129 558.76666667v23.3c0 35.3 28.7 64 64 64h640c35.3 0 64-28.7 64-64v-23.3H129z"  horiz-adv-x="1024" />

    
    <glyph glyph-name="jixiaokaohe1" unicode="&#58985;" d="M758.912 608H576a32 32 0 0 0 0 64h256a32 32 0 0 0 32-32v-256a32 32 0 1 0-64 0V556.8L575.104 270.72a32 32 0 0 0-48-2.624L362.88 435.584 216 269.312a32 32 0 0 0-48 42.368l169.792 192a32 32 0 0 0 46.784 1.28l162.752-166.08L758.912 608zM128 896h768a128 128 0 0 0 128-128v-768a128 128 0 0 0-128-128H128a128 128 0 0 0-128 128V768a128 128 0 0 0 128 128z m0-64a64 64 0 0 1-64-64v-768a64 64 0 0 1 64-64h768a64 64 0 0 1 64 64V768a64 64 0 0 1-64 64H128z m64-736a32 32 0 0 0 0 64l640-0.192a32 32 0 0 0 0-64L192 96z"  horiz-adv-x="1024" />

    
    <glyph glyph-name="cuishouguanli1" unicode="&#58892;" d="M976.329609 384.162722H853.062131V810.693787a85.306213 85.306213 0 0 1-85.306213 85.306213H255.918639a85.306213 85.306213 0 0 1-85.306213-85.306213v-426.531065H48.624541a45.212293 45.212293 0 0 1-34.549016-77.628654l208.14716-194.498166 231.606369-216.677781a85.306213 85.306213 0 0 1 117.296042 0l231.606369 216.677781 207.720629 194.498166a45.212293 45.212293 0 0 1-34.122485 77.628654zM639.796598 426.815828a42.653107 42.653107 0 1 0 0-85.306213h-85.306213v-85.306213a42.653107 42.653107 0 0 0-85.306213 0v85.306213H383.877959a42.653107 42.653107 0 0 0 0 85.306213h85.306213v42.653107H383.877959a42.653107 42.653107 0 0 0 0 85.306213h75.069467L360.41875 652.450762a42.653107 42.653107 0 0 0 60.567411 60.567411L511.837278 622.593587l90.424586 90.424586a42.653107 42.653107 0 0 0 60.14088 0 42.653107 42.653107 0 0 0 0-60.567411L564.300599 554.775148H639.796598a42.653107 42.653107 0 1 0 0-85.306213h-85.306213v-42.653107z"  horiz-adv-x="1024" />

    
    <glyph glyph-name="shenhe" unicode="&#58888;" d="M787.664521 177.330629c0 38.290502-30.794955 68.904842-68.724226 68.904842h-97.532411c-30.885263 12.823706-63.486374 42.534968-63.486374 72.155922V357.765588c0 9.843549 0.903078 22.215716 2.980157 35.129729 62.222065 23.570332 98.706412 88.321016 86.695476 153.794162-12.010936 65.473146-69.085457 113.06535-135.642297 113.065349-66.556839 0-123.631361-47.592204-135.642296-113.065349-12.010936-65.473146 24.47341-130.133521 86.695475-153.794162 1.896464-11.649705 2.799541-23.389717 2.980157-35.129729v-39.374195c0-29.711262-32.601111-59.332216-63.486374-72.155922H305.059705c-37.477732 0-68.724226-30.885263-68.724226-68.904842v-68.904842h551.238734v68.904842z"  horiz-adv-x="1024" />

    
    <glyph glyph-name="userplus-fill" unicode="&#59348;" d="M592.64 314.432A255.296 255.296 0 0 1 512 128a255.36 255.36 0 0 1 86.656-192H64v164.544C64 246.464 362.496 320 512 320c23.68 0 51.2-1.856 80.64-5.568zM512 832c123.776 0 224-100.224 224-224S635.776 384 512 384a223.936 223.936 0 0 0-224 224C288 731.776 388.224 832 512 832z m320-512v-128h128v-128h-128v-128h-128v128H576v128h128V320h128z"  horiz-adv-x="1024" />

    
    <glyph glyph-name="fenzu" unicode="&#58988;" d="M982.041951 244.636098H494.518049a39.960976 39.960976 0 0 0-39.960976 39.960975V483.402927a39.960976 39.960976 0 0 0 39.960976 39.960975h487.523902a39.960976 39.960976 0 0 0 39.960976-39.960975v-198.805854a39.960976 39.960976 0 0 0-39.960976-39.960975z m-447.562927 79.921951h407.601952V443.441951H534.479024zM982.041951-128H494.518049a39.960976 39.960976 0 0 0-39.960976 39.960976V111.765854a39.960976 39.960976 0 0 0 39.960976 39.960975h487.523902a39.960976 39.960976 0 0 0 39.960976-39.960975v-199.804878a39.960976 39.960976 0 0 0-39.960976-39.960976z m-447.562927 79.921951h407.601952V71.804878H534.479024zM982.041951 616.273171H494.518049a39.960976 39.960976 0 0 0-39.960976 39.960975V856.039024a39.960976 39.960976 0 0 0 39.960976 39.960976h487.523902a39.960976 39.960976 0 0 0 39.960976-39.960976v-199.804878a39.960976 39.960976 0 0 0-39.960976-39.960975z m-447.562927 79.921951h407.601952V816.078049H534.479024zM247.759024-26.099512H40.960976a39.960976 39.960976 0 0 0-39.960976 39.960975V753.139512a39.960976 39.960976 0 0 0 39.960976 39.960976h206.798048a39.960976 39.960976 0 1 0 0-79.921951H80.921951v-659.356098h166.837073a39.960976 39.960976 0 1 0 0-79.921951zM247.759024 343.539512H40.960976a39.960976 39.960976 0 0 0 0 79.921951h206.798048a39.960976 39.960976 0 0 0 0-79.921951zM592.422439 629.260488a39.960976 39.960976 0 0 0-39.960976 39.960975V834.060488a39.960976 39.960976 0 0 0 79.921952 0v-164.839025a39.960976 39.960976 0 0 0-39.960976-39.960975zM592.422439 250.630244a39.960976 39.960976 0 0 0-39.960976 39.960976V455.430244a39.960976 39.960976 0 0 0 79.921952 0v-164.839024a39.960976 39.960976 0 0 0-39.960976-39.960976zM592.422439-119.00878a39.960976 39.960976 0 0 0-39.960976 39.960975V85.79122a39.960976 39.960976 0 0 0 79.921952 0v-164.839025a39.960976 39.960976 0 0 0-39.960976-39.960975z"  horiz-adv-x="1024" />

    
    <glyph glyph-name="fenpei1" unicode="&#58940;" d="M490.8 797.8c-229.3 0-415.1-185.8-415.1-415s185.8-415.1 415.1-415.1 415.1 185.8 415.1 415.1c0 229.2-185.9 415-415.1 415z m219.9-550.9L599 135.2c-8.7-8.7-22.9-8.7-31.6 0-8.7 8.7-8.7 22.9 0 31.6l73.6 73.6H286.6c-12.3 0-22.3 10-22.3 22.3s10 22.3 22.3 22.3H641l-73.6 73.6c-4.4 4.4-6.5 10.1-6.5 15.8 0 5.7 2.2 11.4 6.5 15.8 8.7 8.7 22.9 8.7 31.6 0l111.7-111.7c8.8-8.7 8.8-22.9 0-31.6z m-15.8 233.6H340.6l73.6-73.6c8.7-8.7 8.7-22.9 0-31.6-8.7-8.7-22.9-8.7-31.6 0L270.8 487c-8.7 8.7-8.7 22.9 0 31.6l111.7 111.7c8.7 8.7 22.9 8.7 31.6 0 4.4-4.4 6.5-10.1 6.5-15.8s-2.2-11.4-6.5-15.8l-73.6-73.6h354.3c12.3 0 22.3-10 22.3-22.3 0.2-12.3-9.8-22.3-22.2-22.3z"  horiz-adv-x="1024" />

    
    <glyph glyph-name="dingdan" unicode="&#58881;" d="M620.79 700.57H389.25c-0.6 0-1.1 0.49-1.1 1.1V799.65c0 0.6 0.49 1.1 1.1 1.1H620.8c0.6 0 1.1-0.49 1.1-1.1v-97.98c-0.01-0.61-0.5-1.1-1.11-1.1zM743.12 736.26h-90.99c-1.35-32.91-28.49-59.47-61.73-59.47H419.63c-33.22 0-60.38 26.56-61.73 59.47h-90.98c-50.31 0-91.46-41.15-91.46-91.46v-518.3c0-50.3 41.15-91.46 91.46-91.46h476.19c50.31 0 91.46 41.16 91.46 91.46V644.8c0.01 50.31-41.14 91.46-91.45 91.46z m-66.55-512.24h-343.1c-12.64 0-22.86 10.23-22.86 22.86 0 12.64 10.23 22.86 22.86 22.86h343.1c12.64 0 22.86-10.23 22.86-22.86 0.01-12.63-10.22-22.86-22.86-22.86z m0 139.37h-343.1c-12.64 0-22.86 10.23-22.86 22.86 0 12.64 10.23 22.86 22.86 22.86h343.1c12.64 0 22.86-10.23 22.86-22.86 0.01-12.63-10.22-22.86-22.86-22.86z m0 139.38h-343.1c-12.64 0-22.86 10.23-22.86 22.86 0 12.64 10.23 22.86 22.86 22.86h343.1c12.64 0 22.86-10.23 22.86-22.86 0.01-12.64-10.22-22.86-22.86-22.86z"  horiz-adv-x="1024" />

    
    <glyph glyph-name="zidongdaikou" unicode="&#59085;" d="M563.2 128a256 256 0 0 0 256 256V793.6a51.2 51.2 0 0 1-51.2 51.2H51.2a51.2 51.2 0 0 1-51.2-51.2v-819.2a51.2 51.2 0 0 1 51.2-51.2h614.4a256 256 0 0 0-102.4 204.8zM427.52 504.32v-33.28H337.92v-46.08h89.6v-33.28H337.92v-81.92H276.48v81.92H186.88V424.96H276.48v46.08H186.88v33.28H256L153.6 691.2h69.12L307.2 527.36 391.68 691.2H460.8L358.4 504.32zM819.2 332.8a220.16 220.16 0 0 1-204.8-204.8 220.16 220.16 0 0 1 204.8-204.8 220.16 220.16 0 0 1 204.8 204.8 220.16 220.16 0 0 1-204.8 204.8z m102.4-243.2h-204.8a38.4 38.4 0 0 0 0 76.8h204.8a38.4 38.4 0 0 0 0-76.8z"  horiz-adv-x="1024" />

    
    <glyph glyph-name="home" unicode="&#59121;" d="M1013.248 409.6l-476.16 476.16c-13.824 13.824-35.84 13.824-49.664 0l-476.16-476.16c-22.016-22.016-6.656-59.904 25.088-59.904H112.64v-404.48c0-40.448 32.768-73.216 73.216-73.216h120.32c33.28 0 59.904 27.136 59.904 59.904v86.016c0 40.448 32.768 73.216 73.216 73.216h146.432c40.448 0 73.216-32.768 73.216-73.216v-86.016c0-33.28 27.136-59.904 59.904-59.904h118.784c40.448 0 73.216 32.768 73.216 73.216v404.48H988.16c31.232 0 47.104 37.888 25.088 59.904z"  horiz-adv-x="1024" />

    
    <glyph glyph-name="tongji1" unicode="&#58986;" d="M263.68 880.64h70.656v-177.152H263.68zM121.856 738.816h708.608v-70.656H121.856zM617.984 880.64h70.656v-177.152h-70.656zM443.392 30.208H121.856V738.816h708.608v-321.024c26.624-15.36 50.688-34.816 70.656-57.856v378.88c0 38.912-31.744 70.656-70.656 70.656H121.856C82.944 809.472 51.2 778.24 51.2 738.816v-708.608c0-38.912 31.744-70.656 70.656-70.656h379.392c-23.04 19.968-42.496 44.032-57.856 70.656z m0 0M901.632 359.424v-99.328c12.8-10.24 20.48-25.6 20.48-41.984s-7.68-31.744-20.48-41.984v-145.92c0-38.912-31.744-70.656-70.656-70.656H501.248c51.712-45.568 118.272-71.168 187.392-70.656 156.672 0 283.648 126.976 283.648 283.648 0 68.608-25.088 135.168-70.656 186.88z m0 0M803.84 93.184c0-22.528-14.336-42.496-35.328-50.176-20.992-7.68-44.544-1.024-58.88 16.384-14.336 17.408-15.872 41.984-4.608 60.928l-78.848 78.848c-7.68-1.536-15.872-1.536-23.552 0l-47.616-47.616c12.8-22.528 7.68-50.688-12.288-67.584-19.968-16.384-48.64-16.384-68.608 0.512-19.456 16.896-24.064 45.568-10.752 67.584 13.312 22.016 40.448 31.744 64.512 22.528l44.544 44.544c-16.896 22.016-13.824 52.736 6.656 71.168 20.48 18.432 51.2 18.432 71.68 0s23.04-49.664 6.656-71.168l75.776-75.776c11.776 4.096 24.576 4.096 36.352 0l51.712 51.712c-9.728 19.968-6.144 44.032 9.728 60.416V417.792c-43.008 25.088-92.16 37.888-141.824 37.888-156.672 0-283.648-126.976-283.648-283.648 0-49.664 12.8-98.816 37.888-141.824h387.072v123.904l-34.304-34.304c5.12-7.68 7.68-16.896 7.68-26.624z m26.624 324.608v-162.304c18.944 19.456 49.664 21.504 70.656 5.12v99.328c-19.968 22.528-44.032 41.984-70.656 57.856z m0 0M901.632 30.208v145.92c-15.872-12.288-36.864-14.848-55.296-6.144l-15.872-15.872v-123.904H443.392c15.36-26.624 34.816-50.688 57.856-70.656h329.216c38.912 0 70.656 31.744 71.168 70.656zM192.512 561.664h566.784v-70.656H192.512V561.664z m0-141.824H440.32v-70.656H192.512V419.84z m0 0"  horiz-adv-x="1024" />

    
    <glyph glyph-name="cuishoutongji" unicode="&#58956;" d="M916.29 820.29a40 40 0 0 1-56.57 0l-53.4-53.4-78.9-78.89-187.74-187.75a40 40 0 0 1 0-56.56 40 40 0 0 1 56.57 0L784 631.43l78.89 78.9 53.4 53.39a40 40 0 0 1 0 56.57zM824 528.54a40 40 0 0 1-40-39.23V56a40 40 0 0 0-40-40H216a40 40 0 0 0-40 40V648a40 40 0 0 0 40 40h371a40 40 0 0 1 0 80H166a70 70 0 0 1-70-70v-692a70 70 0 0 1 70-70h628a70 70 0 0 1 70 70V490.91a40 40 0 0 1-40 37.63zM224 296a40 40 0 0 1 40-40h368a40 40 0 0 1 0 80H264a40 40 0 0 1-40-40z m216 216H264a40 40 0 0 1 0-80h176a40 40 0 0 1 0 80z"  horiz-adv-x="1024" />

    
    <glyph glyph-name="qudao" unicode="&#58891;" d="M784.318475 423.251891l238.70106-137.818093v-275.615705L784.318475-128l-238.706179 137.818093V285.433798l238.706179 137.818093z m0-70.829017l-184.317235-102.398464v-204.796928l184.317235-102.398464 184.317235 102.398464v204.796928l-184.317235 102.398464zM0.00768 285.433798l238.701059 137.818093 238.70618-137.818093v-275.615705L238.708739-128 0.00768 9.818093V285.433798z m54.383824-32.854547v-209.911731l184.317235-104.958426 184.317236 104.958426v209.916851l-184.317236 104.958426-184.317235-104.958426z m695.654205 505.607776v-275.620825l-238.701059-137.812973-238.70618 137.812973V758.187027L511.34465 896l238.701059-137.812973z m-54.383824-32.854547l-184.317235 104.958426-184.317235-104.958426V515.420749l184.317235-104.958426 184.317235 104.958426V725.3376z"  horiz-adv-x="1024" />

    
    <glyph glyph-name="rengongshenhe" unicode="&#59036;" d="M446.464 439.296c86.016 0 155.648 67.584 155.648 151.552 0 83.968-69.632 151.552-155.648 151.552-86.016 0-155.648-67.584-155.648-151.552-2.048-83.968 69.632-151.552 155.648-151.552z m182.272-83.968c-53.248 30.72-114.688 47.104-178.176 47.104-196.608 0-356.352-151.552-358.4-337.92h450.56c-18.432 30.72-26.624 67.584-28.672 102.4 0 79.872 47.104 151.552 114.688 188.416z m309.248-292.864l-69.632 47.104c6.144 16.384 10.24 36.864 10.24 55.296 0 83.968-71.68 153.6-157.696 153.6-88.064 0-157.696-67.584-157.696-153.6 0-83.968 71.68-153.6 157.696-153.6 43.008 0 81.92 16.384 110.592 45.056l67.584-45.056c6.144-4.096 12.288-6.144 18.432-6.144 14.336 0 26.624 8.192 30.72 22.528 6.144 14.336 2.048 28.672-10.24 34.816zM720.896 76.8c-51.2 0-92.16 40.96-92.16 88.064 0 49.152 40.96 88.064 92.16 88.064s92.16-40.96 92.16-88.064c0-49.152-40.96-88.064-92.16-88.064z"  horiz-adv-x="1024" />

    


  </font>
</defs>
</svg>
